<svg width="34" height="34" viewBox="0 0 34 34" fill="none" xmlns="http://www.w3.org/2000/svg">
<path d="M8.75 26.6667H11.25V22.9167H15V20.4167H11.25V16.6667H8.75V20.4167H5V22.9167H8.75V26.6667ZM18.3333 20.4167H28.3333V18.75H18.3333V20.4167ZM18.3333 25.4167H25V23.75H18.3333V25.4167ZM2.5 33.3333C1.83333 33.3333 1.25 33.0833 0.75 32.5833C0.25 32.0833 0 31.5 0 30.8333V10.8333C0 10.1667 0.25 9.58333 0.75 9.08333C1.25 8.58333 1.83333 8.33333 2.5 8.33333H12.375V2.5C12.375 1.83333 12.625 1.25 13.125 0.75C13.625 0.25 14.2083 0 14.875 0H18.5C19.1667 0 19.75 0.25 20.25 0.75C20.75 1.25 21 1.83333 21 2.5V8.33333H30.8333C31.5 8.33333 32.0833 8.58333 32.5833 9.08333C33.0833 9.58333 33.3333 10.1667 33.3333 10.8333V30.8333C33.3333 31.5 33.0833 32.0833 32.5833 32.5833C32.0833 33.0833 31.5 33.3333 30.8333 33.3333H2.5ZM2.5 30.8333H30.8333V10.8333H21C21 11.6111 20.7431 12.2222 20.2292 12.6667C19.7153 13.1111 19.0694 13.3333 18.2917 13.3333H15.0417C14.2917 13.3333 13.6597 13.1111 13.1458 12.6667C12.6319 12.2222 12.375 11.6111 12.375 10.8333H2.5V30.8333ZM14.875 10.8333H18.5V2.5H14.875V10.8333Z" fill="#188038"/>
</svg>
