<svg width="29" height="36" viewBox="0 0 29 36" fill="none" xmlns="http://www.w3.org/2000/svg">
<path d="M14.1811 17.4977C15.0353 17.4977 15.7643 17.1958 16.3681 16.592C16.9719 15.9882 17.2738 15.2592 17.2738 14.405C17.2738 13.5509 16.9719 12.8219 16.3681 12.2181C15.7643 11.6143 15.0353 11.3123 14.1811 11.3123C13.327 11.3123 12.598 11.6143 11.9942 12.2181C11.3904 12.8219 11.0885 13.5509 11.0885 14.405C11.0885 15.2592 11.3904 15.9882 11.9942 16.592C12.598 17.1958 13.327 17.4977 14.1811 17.4977ZM14.1811 32.1216C18.0985 28.5577 20.9924 25.3251 22.8627 22.4239C24.733 19.5227 25.6682 16.9675 25.6682 14.7585C25.6682 11.2829 24.5563 8.44058 22.3325 6.23153C20.1088 4.02248 17.3916 2.91795 14.1811 2.91795C10.9707 2.91795 8.25352 4.02248 6.02974 6.23153C3.80596 8.44058 2.69407 11.2829 2.69407 14.7585C2.69407 16.9675 3.65133 19.5227 5.56584 22.4239C7.48035 25.3251 10.3521 28.5577 14.1811 32.1216ZM14.1811 35.6119C9.43905 31.5767 5.8972 27.8287 3.55561 24.3678C1.21401 20.907 0.0432129 17.7039 0.0432129 14.7585C0.0432129 10.3404 1.46437 6.82061 4.30668 4.1992C7.149 1.57779 10.4405 0.26709 14.1811 0.26709C17.9218 0.26709 21.2133 1.57779 24.0556 4.1992C26.8979 6.82061 28.3191 10.3404 28.3191 14.7585C28.3191 17.7039 27.1483 20.907 24.8067 24.3678C22.4651 27.8287 18.9232 31.5767 14.1811 35.6119Z" fill="#FFFBFE"/>
</svg>
