<svg width="36" height="29" viewBox="0 0 36 29" fill="none" xmlns="http://www.w3.org/2000/svg">
<path d="M2.69383 28.5732C1.98693 28.5732 1.3684 28.3081 0.838227 27.778C0.308055 27.2478 0.0429688 26.6293 0.0429688 25.9224V2.94823C0.0429688 2.24133 0.308055 1.62279 0.838227 1.09262C1.3684 0.562449 1.98693 0.297363 2.69383 0.297363H32.7369C33.4438 0.297363 34.0624 0.562449 34.5925 1.09262C35.1227 1.62279 35.3878 2.24133 35.3878 2.94823V25.9224C35.3878 26.6293 35.1227 27.2478 34.5925 27.778C34.0624 28.3081 33.4438 28.5732 32.7369 28.5732H2.69383ZM17.7154 15.2306L2.69383 5.37818V25.9224H32.7369V5.37818L17.7154 15.2306ZM17.7154 12.5797L32.5602 2.94823H2.91474L17.7154 12.5797ZM2.69383 5.37818V2.94823V25.9224V5.37818Z" fill="#FFFBFE"/>
</svg>
