<svg width="40" height="40" viewBox="0 0 40 40" fill="none" xmlns="http://www.w3.org/2000/svg">
<path d="M15.9998 40C15.4331 40 14.9581 39.8083 14.5748 39.425C14.1914 39.0417 13.9998 38.5667 13.9998 38V30.4L7.39977 34.2C6.9331 34.4667 6.4331 34.525 5.89977 34.375C5.36644 34.225 4.96644 33.9167 4.69977 33.45L0.699772 26.55C0.433105 26.0833 0.366439 25.575 0.499772 25.025C0.633106 24.475 0.933106 24.0667 1.39977 23.8L7.99977 20L1.39977 16.2C0.933106 15.9333 0.633106 15.525 0.499772 14.975C0.366439 14.425 0.433105 13.9167 0.699772 13.45L4.69977 6.55C4.96644 6.08333 5.36644 5.775 5.89977 5.625C6.4331 5.475 6.9331 5.53333 7.39977 5.8L13.9998 9.6V2C13.9998 1.43333 14.1914 0.958333 14.5748 0.575C14.9581 0.191666 15.4331 0 15.9998 0H23.9998C24.5664 0 25.0414 0.191666 25.4248 0.575C25.8081 0.958333 25.9998 1.43333 25.9998 2V9.6L32.5998 5.8C33.0664 5.53333 33.5664 5.475 34.0998 5.625C34.6331 5.775 35.0331 6.08333 35.2998 6.55L39.2998 13.45C39.5664 13.9167 39.6331 14.425 39.4998 14.975C39.3664 15.525 39.0664 15.9333 38.5998 16.2L31.9998 20L38.5998 23.8C39.0664 24.0667 39.3664 24.475 39.4998 25.025C39.6331 25.575 39.5664 26.0833 39.2998 26.55L35.2998 33.45C35.0331 33.9167 34.6331 34.225 34.0998 34.375C33.5664 34.525 33.0664 34.4667 32.5998 34.2L25.9998 30.4V38C25.9998 38.5667 25.8081 39.0417 25.4248 39.425C25.0414 39.8083 24.5664 40 23.9998 40H15.9998ZM16.9998 37H22.9998V26.7C22.9998 26.3667 23.1414 26.1167 23.4248 25.95C23.7081 25.7833 23.9998 25.7833 24.2998 25.95L33.1998 31.1L36.1998 25.9L27.2498 20.75C26.9498 20.5833 26.7998 20.325 26.7998 19.975C26.7998 19.625 26.9498 19.3667 27.2498 19.2L36.1998 14.05L33.1998 8.9L24.2998 14.05C23.9998 14.2167 23.7081 14.2167 23.4248 14.05C23.1414 13.8833 22.9998 13.6333 22.9998 13.3V3H16.9998V13.35C16.9998 13.6833 16.8581 13.9333 16.5748 14.1C16.2914 14.2667 15.9998 14.2667 15.6998 14.1L6.79977 8.95L3.79977 14.1L12.7498 19.25C13.0498 19.4167 13.1998 19.675 13.1998 20.025C13.1998 20.375 13.0498 20.6333 12.7498 20.8L3.79977 25.95L6.79977 31.1L15.6998 25.95C15.9998 25.7833 16.2914 25.7833 16.5748 25.95C16.8581 26.1167 16.9998 26.3667 16.9998 26.7V37Z" fill="#4285F4"/>
</svg>
