<svg width="33" height="33" viewBox="0 0 33 33" fill="none" xmlns="http://www.w3.org/2000/svg">
<path d="M30.0981 32.7198C26.5047 32.7198 22.9334 31.8361 19.3842 30.0689C15.835 28.3017 12.6466 26.0043 9.81898 23.1767C6.9914 20.3491 4.69398 17.1607 2.92674 13.6115C1.1595 10.0623 0.275879 6.49096 0.275879 2.89757C0.275879 2.33794 0.46733 1.86668 0.850232 1.48378C1.23313 1.10088 1.7044 0.909424 2.26403 0.909424H8.44937C8.86173 0.909424 9.22254 1.04933 9.53181 1.32914C9.84107 1.60896 10.0399 1.9845 10.1282 2.45576L11.3211 8.02257C11.38 8.43493 11.3727 8.81047 11.299 9.14919C11.2254 9.48791 11.0708 9.77508 10.8351 10.0107L6.41704 14.473C8.06647 17.2122 9.91471 19.598 11.9618 21.6303C14.0088 23.6627 16.3283 25.3857 18.9203 26.7995L23.1175 22.4698C23.412 22.1458 23.7507 21.9175 24.1336 21.785C24.5165 21.6524 24.8994 21.6303 25.2823 21.7187L30.5399 22.8674C30.9817 22.9558 31.3499 23.1767 31.6444 23.5301C31.939 23.8836 32.0862 24.2959 32.0862 24.7672V30.7316C32.0862 31.2912 31.8948 31.7625 31.5119 32.1454C31.129 32.5283 30.6577 32.7198 30.0981 32.7198ZM5.09161 12.043L8.67028 8.4202L7.65411 3.56029H2.92674C2.92674 4.70899 3.10347 5.96815 3.45691 7.33776C3.81036 8.70738 4.35526 10.2758 5.09161 12.043ZM21.3944 28.0808C22.602 28.6404 23.9127 29.0969 25.3265 29.4504C26.7403 29.8038 28.1099 30.01 29.4354 30.0689V25.3415L24.8847 24.4137L21.3944 28.0808Z" fill="#FFFBFE"/>
</svg>
